<svg width="30" height="25" viewBox="0 0 30 25" fill="none" xmlns="http://www.w3.org/2000/svg">
<g clip-path="url(#clip0_10_272)">
<path d="M0 2.93828V2.08333C0 1.5308 0.197544 1.0009 0.549175 0.610194C0.900806 0.219493 1.37772 0 1.875 0L28.125 0C28.6223 0 29.0992 0.219493 29.4508 0.610194C29.8025 1.0009 30 1.5308 30 2.08333V2.93828L15 13.3549L0 2.93828ZM15.4969 15.4669C15.3478 15.5703 15.1757 15.6251 15 15.6251C14.8243 15.6251 14.6522 15.5703 14.5031 15.4669L0 5.39505V22.9167C0 23.4692 0.197544 23.9991 0.549175 24.3898C0.900806 24.7805 1.37772 25 1.875 25H28.125C28.6223 25 29.0992 24.7805 29.4508 24.3898C29.8025 23.9991 30 23.4692 30 22.9167V5.39505L15.4969 15.4669Z" fill="#9B9785"/>
</g>
<defs>
<clipPath id="clip0_10_272">
<rect width="30" height="25" fill="white"/>
</clipPath>
</defs>
</svg>
