<svg width="30" height="30" viewBox="0 0 30 30" fill="none" xmlns="http://www.w3.org/2000/svg">
<g clip-path="url(#clip0_10_266)">
<path d="M8.26163 12.3294C9.26993 14.1573 10.432 15.9117 11.9408 17.5114C13.4545 19.121 15.3368 20.5857 17.7733 21.8371C17.954 21.9254 18.1249 21.9254 18.2787 21.8641C18.5107 21.7757 18.7475 21.5819 18.9794 21.3488C19.1601 21.1672 19.3847 20.8777 19.619 20.5612C20.5565 19.3221 21.7162 17.7837 23.3544 18.5542C23.391 18.5713 23.4179 18.591 23.4545 18.6057L28.9184 21.7635C28.9355 21.7733 28.955 21.7905 28.9696 21.8003C29.6898 22.2983 29.9877 23.0663 29.995 23.9373C29.995 24.8231 29.6703 25.8192 29.1942 26.6608C28.5644 27.7723 27.6366 28.5084 26.5673 28.9942C25.5492 29.4653 24.4164 29.718 23.3275 29.8799C21.6186 30.1326 20.017 29.9707 18.3788 29.4653C16.7773 28.9672 15.1635 28.1452 13.4008 27.0509L13.2714 26.9675C12.4633 26.4596 11.5893 25.9174 10.7323 25.277C7.59756 22.897 4.40176 19.4595 2.31924 15.6761C0.573639 12.5012 -0.378509 9.07352 0.14151 5.80779C0.429596 4.01667 1.19376 2.38749 2.52676 1.31282C3.68887 0.370645 5.25381 -0.144608 7.28018 0.0369571C7.51212 0.0541322 7.71963 0.189079 7.8295 0.390274L11.3329 6.34267C11.8456 7.01005 11.9091 7.67252 11.6283 8.33499C11.3964 8.87723 10.9276 9.37776 10.288 9.84394C10.1 10.0059 9.8754 10.1703 9.63858 10.342C8.85489 10.9137 7.96378 11.5737 8.26895 12.3491L8.26163 12.3294Z" fill="#9B9785"/>
</g>
<defs>
<clipPath id="clip0_10_266">
<rect width="30" height="30" fill="white"/>
</clipPath>
</defs>
</svg>
